<svg width="24" height="24" viewBox="0 0 24 24" fill="none" xmlns="http://www.w3.org/2000/svg">
  <path d="M21.8012 4.22987C22.0375 3.26694 21.2143 2.49069 20.2865 2.75375L2.78467 7.71595C1.89622 7.96785 1.85143 9.20864 2.7201 9.5238L6.36847 10.8474C7.28624 11.1804 8.29023 11.0298 9.07906 10.4405L15.5112 5.63502C15.7657 5.44492 16.0431 5.80669 15.8257 6.03042L11.1964 10.7968C10.7475 11.2592 10.6584 11.9518 10.9765 12.5092L13.1934 16.3934C13.6508 17.1949 14.6699 17.4962 15.4936 17.0802C16.4098 16.6177 17.4828 16.0092 18.4375 15.4464C20.3877 14.297 20.8737 12.8056 21.3114 11.233L21.8012 4.22987Z" fill="white"/>
</svg>
