<svg xmlns="http://www.w3.org/2000/svg" width="24" height="24" viewBox="0 0 24 24" fill="none">
  <path fill="#fff" d="M0 11.563C0 6.113 0 3.388 1.694 1.694 3.387 0 6.113 0 11.563 0h.875C17.887 0 20.613 0 22.306 1.694 24 3.387 24 6.113 24 11.563v.875c0 5.45 0 8.175-1.694 9.868C20.613 24 17.887 24 12.437 24h-.875c-5.45 0-8.175 0-9.868-1.694C0 20.613 0 17.887 0 12.437v-.875Zm4.502-3.72c.132 6.362 3.423 10.18 9.2 10.18h.328V14.39c2.043.203 3.586 1.69 4.206 3.633h2.89c-.793-2.898-2.882-4.502-4.19-5.116 1.308-.755 3.136-2.594 3.58-5.064h-2.628c-.578 2.004-2.257 3.843-3.858 4.015V7.843H11.4v7.033c-1.622-.406-3.663-2.386-3.755-7.033H4.502Z"/>
</svg>
