<svg xmlns="http://www.w3.org/2000/svg" width="24" height="24" viewBox="0 0 24 24" fill="none">
  <path fill="#fff" d="M12 2C6.477 2 2 6.477 2 12s4.477 10 10 10 10-4.477 10-10S17.523 2 12 2Zm7.93 9h-3.08a15.74 15.74 0 0 0-1.23-5.06A8.017 8.017 0 0 1 19.93 11ZM12 4.07c.69.95 1.84 3.14 2.16 6.93H9.84c.32-3.79 1.47-5.98 2.16-6.93ZM4.07 13h3.08c.14 1.91.57 3.72 1.23 5.06A8.017 8.017 0 0 1 4.07 13Zm3.08-2H4.07a8.017 8.017 0 0 1 4.31-5.06A15.74 15.74 0 0 0 7.15 11ZM12 19.93c-.69-.95-1.84-3.14-2.16-6.93h4.32c-.32 3.79-1.47 5.98-2.16 6.93Zm3.62-1.87c.66-1.34 1.09-3.15 1.23-5.06h3.08a8.017 8.017 0 0 1-4.31 5.06Z"/>
</svg>
