<svg width="24" height="24" viewBox="0 0 24 24" fill="none" xmlns="http://www.w3.org/2000/svg">
  <path d="M12 2C6.486 2 2 6.486 2 12C2 17.514 6.486 22 12 22C17.514 22 22 17.514 22 12C22 6.486 17.514 2 12 2ZM19.93 11H16.98C16.82 8.83 16.19 6.87 15.2 5.4C17.73 6.43 19.57 8.52 19.93 11ZM12 4.08C13.24 5.69 14.03 8.16 14.19 11H9.81C9.97 8.16 10.76 5.69 12 4.08ZM4.07 13H7.02C7.18 15.17 7.81 17.13 8.8 18.6C6.27 17.57 4.43 15.48 4.07 13ZM7.02 11H4.07C4.43 8.52 6.27 6.43 8.8 5.4C7.81 6.87 7.18 8.83 7.02 11ZM12 19.92C10.76 18.31 9.97 15.84 9.81 13H14.19C14.03 15.84 13.24 18.31 12 19.92ZM15.2 18.6C16.19 17.13 16.82 15.17 16.98 13H19.93C19.57 15.48 17.73 17.57 15.2 18.6Z" fill="white"/>
</svg>
